<svg width="40" height="49" viewBox="0 0 40 49" fill="none" xmlns="http://www.w3.org/2000/svg">
<path d="M28.3563 5.72265C28.8888 4.24883 29.221 2.97851 29.221 1.77246C29.221 1.57109 29.155 1.43828 29.155 1.23691C29.155 1.03555 29.089 0.767773 29.0208 0.5C25.6919 1.23691 23.364 2.7086 21.8987 4.85078C20.4334 6.92656 19.7029 9.40293 19.6347 12.282C20.8338 12.1471 21.8306 11.9479 22.5632 11.7465C23.5621 11.4123 24.627 10.7418 25.6919 9.73711C26.891 8.53106 27.8217 7.05938 28.3542 5.72051L28.3563 5.72265ZM24.561 12.417C22.5632 13.0875 21.1661 13.3553 20.4334 13.3553C19.8349 13.3553 18.5698 13.0875 16.506 12.5519C14.5083 11.95 12.8449 11.6137 11.3817 11.6137C8.12097 11.6137 5.39055 13.0189 3.19472 15.8316C1.06491 18.6443 0 22.1918 0 26.609C0 31.3625 1.39716 36.1824 4.1936 41.1352C7.05607 46.09 9.98456 48.5 12.847 48.5C13.7799 48.5 14.9768 48.1658 16.6402 47.5617C18.1716 46.9598 19.5027 46.6234 20.6996 46.6234C21.8966 46.6234 23.3619 46.8912 25.0253 47.4932C26.7568 48.0951 28.088 48.3629 29.0847 48.3629C31.5468 48.3629 34.011 46.4885 36.473 42.8061C37.2717 41.6 38.0044 40.3297 38.6028 39.1236C39.1353 37.9861 39.6017 36.7801 40 35.6426C38.2024 35.107 36.6711 33.8346 35.4081 31.9602C34.143 30.0193 33.4785 27.8772 33.4785 25.5336C33.4785 23.325 34.077 21.382 35.2761 19.5762C36.0087 18.6379 37.1397 17.434 38.605 16.1615C38.1385 15.5596 37.6061 14.9555 37.1397 14.4885C36.6072 14.0193 36.1408 13.6188 35.6744 13.2824C33.8108 12.0764 31.747 11.408 29.4851 11.408C28.154 11.408 26.4906 11.8108 24.5589 12.4127L24.561 12.417Z" fill="#121212"/>
</svg>
