<svg width="40" height="33" viewBox="0 0 40 33" fill="none" xmlns="http://www.w3.org/2000/svg">
<path opacity="0.5" d="M16.0007 32.499H24.0004C31.5425 32.499 35.3135 32.499 37.6566 30.1559C39.9997 27.8131 39.9997 24.0418 39.9997 16.4998C39.9997 15.616 39.9963 13.284 39.9925 12.5H0.00181406C-0.00196578 13.284 0.00133415 15.616 0.00133415 16.4998C0.00133415 24.0418 0.00133413 27.8131 2.34438 30.1559C4.68744 32.499 8.4585 32.499 16.0007 32.499Z" fill="#FF8C26"/>
<path d="M15.9915 0.500977H24.0118C31.5733 0.500977 35.3542 0.500976 37.7033 2.73243C39.3946 4.33911 39.8682 6.65082 40.0008 10.5005V12.5004H0.00244141V10.5005C0.135036 6.65082 0.608616 4.33911 2.29997 2.73243C4.64905 0.500976 8.42985 0.500977 15.9915 0.500977Z" fill="#FF8C26"/>
<path d="M21.0014 23C20.173 23 19.5015 23.6716 19.5015 24.4999C19.5015 25.3283 20.173 25.9999 21.0014 25.9999H24.0013C24.8296 25.9999 25.5012 25.3283 25.5012 24.4999C25.5012 23.6716 24.8296 23 24.0013 23H21.0014Z" fill="#FF8C26"/>
<path d="M8.00189 23C7.17351 23 6.50195 23.6716 6.50195 24.4999C6.50195 25.3283 7.17351 25.9999 8.00189 25.9999H16.0016C16.8299 25.9999 17.5015 25.3283 17.5015 24.4999C17.5015 23.6716 16.8299 23 16.0016 23H8.00189Z" fill="#FF8C26"/>
</svg>
