<svg width="40" height="31" viewBox="0 0 40 31" fill="none" xmlns="http://www.w3.org/2000/svg">
<path d="M11.628 7.70418C12.4074 7.59185 13.1864 7.47899 13.9658 7.36666C16.435 7.01173 18.9036 6.65628 21.3728 6.30294C24.1773 5.90161 26.983 5.50238 29.7875 5.10263C31.6792 4.83261 33.5714 4.56629 35.4631 4.29258C36.5901 4.12962 37.5267 4.84527 37.6607 5.97966C37.7203 6.4833 37.7704 6.98905 37.8564 7.48795C37.9075 7.78592 37.7978 7.86925 37.5294 7.8434C37.465 7.83708 37.3991 7.84235 37.3343 7.84235C28.9132 7.84235 20.4921 7.84235 12.071 7.84077C11.9249 7.84077 11.7704 7.87399 11.6311 7.80912L11.6274 7.70418H11.628Z" fill="#FF8C26"/>
<path d="M12.0439 6.23873C12.4205 6.12798 12.796 6.01248 13.1741 5.90648C19.2943 4.18882 25.415 2.47221 31.5351 0.756123C32.8003 0.401199 33.7538 0.952307 34.0776 2.2217C34.1034 2.32243 34.1272 2.42316 34.1541 2.52389C34.3613 3.30282 34.3893 3.18153 33.6372 3.29122C29.6619 3.86975 25.6839 4.43299 21.707 5.0015C18.5802 5.44819 15.4534 5.8954 12.3266 6.34051C12.2396 6.35264 12.1494 6.34209 12.0608 6.34209C12.055 6.30781 12.0497 6.27353 12.0439 6.23925V6.23873Z" fill="#FF8C26"/>
<path d="M37.7246 9.0918C39.0367 9.0918 39.5528 9.44453 40 10.6475V28.9229C39.8597 29.0331 39.8563 29.2161 39.7725 29.3574C39.4144 29.9628 38.8962 30.3003 38.1885 30.333C38.0716 30.3383 37.9548 30.335 37.8379 30.335C25.9451 30.335 14.0515 30.3237 2.1582 30.3506C0.831027 30.3536 -0.00738252 29.423 0 28.207C0.0342787 22.5467 0.015625 16.8854 0.015625 11.2246C0.0157834 9.8263 0.75515 9.0918 2.16309 9.0918H37.7246ZM5.16113 11.5928C4.63809 11.5933 4.44011 11.7819 4.38574 12.3037C4.32035 12.9323 3.87136 13.3955 3.26172 13.4619C2.684 13.5252 2.51474 13.7073 2.51465 14.2812C2.51412 16.09 2.51465 17.8992 2.51465 19.708L2.51367 19.71C2.51367 21.5189 2.51262 23.3278 2.51367 25.1367C2.5142 25.7335 2.65532 25.8933 3.23926 25.9688C3.88687 26.0521 4.31982 26.4999 4.38574 27.1533C4.43643 27.655 4.62998 27.8343 5.13867 27.8359C6.10153 27.8391 7.06449 27.8369 8.02734 27.8369C9.70593 27.8369 11.3849 27.8402 13.0635 27.8359C13.4912 27.8349 13.7605 27.5826 13.7568 27.2129C13.7531 26.8691 13.4829 26.6162 13.0869 26.5898C12.9833 26.5825 12.8791 26.5879 12.7754 26.5879C10.4982 26.5879 8.22056 26.5844 5.94336 26.5918C5.69244 26.5923 5.54459 26.5356 5.44336 26.2783C5.18915 25.6335 4.72934 25.165 4.07812 24.915C3.8271 24.8185 3.75826 24.6719 3.75879 24.415C3.7667 21.292 3.76678 18.168 3.75781 15.0449C3.75684 14.771 3.83411 14.6249 4.09766 14.5205C4.70124 14.2811 5.15829 13.8547 5.40137 13.25C5.52899 12.9315 5.7026 12.8319 6.03906 12.834C8.35514 12.8482 10.6712 12.839 12.9873 12.8438C13.2636 12.8443 13.5096 12.8016 13.6631 12.5469C13.7775 12.357 13.7991 12.1567 13.6895 11.9531C13.5333 11.6638 13.275 11.5899 12.9688 11.5898C10.3662 11.5925 7.76365 11.5901 5.16113 11.5928ZM20.0303 11.5928C15.5667 11.5812 11.9023 15.2176 11.8857 19.6758C11.8694 24.17 15.4972 27.8247 19.9834 27.835C24.4597 27.8445 28.1115 24.2255 28.1289 19.7607C28.1461 15.2751 24.507 11.6044 20.0303 11.5928ZM27.1523 11.5918C27.0228 11.5918 26.8874 11.5793 26.7646 11.6113C26.4394 11.6967 26.2391 11.9115 26.2637 12.2588C26.2879 12.6011 26.5021 12.7959 26.8428 12.8359C26.9586 12.8496 27.0765 12.8408 27.1934 12.8408C29.4706 12.8408 31.7482 12.8454 34.0254 12.8359C34.3095 12.8344 34.4763 12.908 34.585 13.1885C34.8323 13.8255 35.2991 14.2712 35.9277 14.5254C36.1733 14.6251 36.2574 14.7562 36.2568 15.0166C36.2489 18.1533 36.2484 21.2896 36.2568 24.4258C36.2574 24.6888 36.1695 24.8225 35.9268 24.918C35.3066 25.1621 34.8494 25.5991 34.6016 26.2188C34.4866 26.5059 34.3293 26.5953 34.0215 26.5938C31.6789 26.58 29.3367 26.5842 26.9941 26.5879C26.5375 26.589 26.2568 26.8407 26.2578 27.2178C26.2589 27.5943 26.5396 27.8349 27 27.835C29.6284 27.8371 32.2574 27.8371 34.8857 27.835C35.3857 27.8344 35.5772 27.649 35.6289 27.1406C35.6933 26.5079 36.1188 26.061 36.7451 25.9697C37.3858 25.8764 37.5009 25.7432 37.501 25.0859V19.7383C37.501 17.9168 37.5016 16.0945 37.5 14.2725C37.4995 13.7145 37.3223 13.5187 36.7812 13.4639C36.1738 13.4022 35.7136 12.9651 35.6328 12.373C35.5437 11.718 35.3996 11.5918 34.7256 11.5918C32.2012 11.5907 29.6767 11.5907 27.1523 11.5918ZM7.51465 17.8418C6.48206 17.8407 5.63229 18.699 5.63965 19.7363C5.64703 20.7599 6.48292 21.5879 7.51074 21.5879C8.53912 21.5884 9.37678 20.7618 9.38574 19.7393C9.39509 18.7031 8.54708 17.8429 7.51465 17.8418ZM32.5068 17.8418C31.4742 17.8386 30.6236 18.6966 30.6299 19.7334C30.6359 20.6934 31.3695 21.481 32.3076 21.5771L32.498 21.5879C33.5262 21.5889 34.3652 20.7655 34.376 19.7432C34.3865 18.7063 33.54 17.845 32.5068 17.8418Z" fill="#FF8C26"/>
<path d="M7.51256 20.3367C7.16924 20.3367 6.895 20.0693 6.88973 19.7291C6.88393 19.3811 7.18717 19.081 7.53154 19.0931C7.86326 19.1047 8.14119 19.3969 8.13591 19.7286C8.13064 20.0682 7.85535 20.3367 7.51309 20.3372L7.51256 20.3367Z" fill="#FF8C26"/>
<path d="M32.5023 20.3367C32.159 20.3367 31.8847 20.0688 31.8795 19.7286C31.8742 19.3805 32.1769 19.081 32.5218 19.0931C32.8535 19.1047 33.1309 19.3974 33.1256 19.7291C33.1198 20.0688 32.8446 20.3372 32.5023 20.3372V20.3367Z" fill="#FF8C26"/>
<path d="M20.0244 12.8428C23.8051 12.8507 26.8846 15.9468 26.8789 19.7354C26.8736 23.5219 23.7862 26.5917 19.9902 26.5859L19.6377 26.5762C16.0116 26.386 13.1296 23.3766 13.1357 19.7012C13.1421 15.9189 16.24 12.8349 20.0244 12.8428ZM20.0068 14.0977C19.663 14.1145 19.4562 14.3172 19.3945 14.6484C19.3662 14.7996 19.3746 14.9604 19.3867 15.1152C19.4036 15.3249 19.331 15.4282 19.1221 15.5146C17.9856 15.9824 17.34 17.1042 17.5361 18.2207C17.7524 19.4529 18.6928 20.2713 19.9697 20.3379C20.7233 20.3774 21.2543 20.8916 21.2559 21.583C21.2574 22.248 20.7227 22.8096 20.0625 22.8359C19.358 22.8644 18.838 22.3794 18.7588 21.6201C18.7171 21.2184 18.4647 20.96 18.123 20.9678C17.7703 20.9762 17.5119 21.2785 17.5107 21.6865V21.6875C17.5081 22.5566 18.0902 23.4797 18.9482 23.8389C19.3167 23.9934 19.4153 24.1902 19.3926 24.5625C19.3627 25.06 19.6079 25.3338 20.0059 25.335C20.3986 25.336 20.6263 25.0549 20.6328 24.5615C20.6333 24.5094 20.6397 24.4558 20.6318 24.4053C20.5881 24.1317 20.7019 24.0017 20.9648 23.8926C22.1393 23.4042 22.737 22.1731 22.4238 20.9512C22.1533 19.8949 21.2196 19.1588 20.0469 19.0928C19.4864 19.0611 19.0715 18.8101 18.8525 18.2988C18.65 17.8253 18.7494 17.372 19.1006 16.998C19.4376 16.64 19.8565 16.506 20.3428 16.6484C20.8563 16.7988 21.1406 17.1555 21.2471 17.668C21.2576 17.718 21.2526 17.7716 21.2578 17.8232C21.3011 18.2357 21.5382 18.4714 21.8984 18.4619C22.2474 18.4529 22.516 18.1762 22.502 17.7852C22.4693 16.8728 22.0715 16.1307 21.2646 15.7119C20.796 15.4689 20.5411 15.2392 20.6143 14.6768C20.6564 14.3509 20.3226 14.082 20.0068 14.0977Z" fill="#FF8C26"/>
</svg>
