<svg width="40" height="41" viewBox="0 0 40 41" fill="none" xmlns="http://www.w3.org/2000/svg">
<path fill-rule="evenodd" clip-rule="evenodd" d="M8.37209 20.5005C8.37209 19.173 8.59256 17.9004 8.98605 16.7068L2.0986 11.4473C0.756279 14.1727 0 17.2437 0 20.5005C0 23.7544 0.755349 26.8236 2.09581 29.5471L8.97954 24.2774C8.58977 23.0893 8.37209 21.8214 8.37209 20.5005Z" fill="#FFC300"/>
<path fill-rule="evenodd" clip-rule="evenodd" d="M20.4656 8.42467C23.3494 8.42467 25.954 9.44648 28.0005 11.1185L33.954 5.17348C30.3261 2.01517 25.6749 0.0644531 20.4656 0.0644531C12.3782 0.0644531 5.42749 4.68951 2.09912 11.4474L8.98656 16.7069C10.5735 11.8895 15.0973 8.42467 20.4656 8.42467Z" fill="#EB4335"/>
<path fill-rule="evenodd" clip-rule="evenodd" d="M20.4656 32.5761C15.0973 32.5761 10.5735 29.1113 8.98656 24.2939L2.09912 29.5525C5.42749 36.3113 12.3782 40.9364 20.4656 40.9364C25.4573 40.9364 30.2228 39.164 33.7996 35.8431L27.2619 30.7889C25.4173 31.951 23.0945 32.5761 20.4656 32.5761Z" fill="#34A853"/>
<path fill-rule="evenodd" clip-rule="evenodd" d="M40.0002 20.5008C40.0002 19.2932 39.8142 17.9927 39.5351 16.7852H20.4653V24.6809H31.4421C30.8932 27.3729 29.3993 29.4425 27.2616 30.7894L33.7993 35.8437C37.5565 32.3565 40.0002 27.162 40.0002 20.5008Z" fill="#4285F4"/>
</svg>
