<svg width="40" height="33" viewBox="0 0 40 33" fill="none" xmlns="http://www.w3.org/2000/svg">
<path d="M7.65333 0V33H0V0H7.65333ZM26.7533 0C26.7533 6.9201 24.115 13.3732 19.395 18.2622L18.9317 18.7291L29.5033 33H20.0567L8.56833 17.49L11.5333 15.2922C16.2967 11.7612 19.0917 6.4185 19.2617 0.5676L19.27 0H26.7533ZM35.8333 24.75C36.9384 24.75 37.9982 25.1846 38.7796 25.9582C39.561 26.7318 40 27.781 40 28.875C40 29.969 39.561 31.0182 38.7796 31.7918C37.9982 32.5654 36.9384 33 35.8333 33C34.7283 33 33.6685 32.5654 32.8871 31.7918C32.1057 31.0182 31.6667 29.969 31.6667 28.875C31.6667 27.781 32.1057 26.7318 32.8871 25.9582C33.6685 25.1846 34.7283 24.75 35.8333 24.75Z" fill="#F4B6C7"/>
</svg>
