<svg width="40" height="47" viewBox="0 0 40 47" fill="none" xmlns="http://www.w3.org/2000/svg">
<path d="M38.5615 15.0742C39.5785 16.9178 39.7442 19.3218 39.1777 22.21C38.3516 26.418 36.5394 29.1947 34.0801 30.9297C31.6096 32.6725 28.4263 33.4062 24.79 33.4062H23.6475C22.5063 33.4062 21.5275 34.2281 21.3428 35.3525L21.25 35.8516L21.248 35.8643L19.8076 44.9111L19.7363 45.2822L19.7354 45.29L19.7344 45.2969C19.6319 45.9373 19.074 46.4141 18.4131 46.4141H12.7393L15.46 29.1865H18.8916C24.2914 29.1865 28.7439 27.883 32.1221 25.3037C35.2437 22.9202 37.4044 19.4784 38.5615 15.0742ZM8.2002 0.584961H22.8682C27.8876 0.584961 31.6477 1.64333 33.6855 3.94727C34.6294 5.01441 35.2215 6.12141 35.5186 7.3877C35.8168 8.65915 35.8241 10.119 35.5566 11.9004V11.9023C35.5565 11.9033 35.5559 11.9046 35.5557 11.9062C35.555 11.9103 35.554 11.917 35.5527 11.9248C35.5501 11.9404 35.5467 11.9631 35.542 11.9912C35.5325 12.0478 35.519 12.1265 35.5039 12.2139C35.4735 12.3905 35.4367 12.5993 35.4092 12.7393C34.4621 17.5652 32.3819 20.7571 29.5527 22.7529C26.7126 24.7565 23.0581 25.5967 18.8916 25.5967H14.5889C13.4664 25.5967 12.4937 26.3101 12.1377 27.334L12.0977 27.3281L9.88965 41.2188H1.26074C0.788613 41.2187 0.438104 40.8016 0.509766 40.3525L6.61816 1.92188C6.74113 1.15559 7.40919 0.584961 8.2002 0.584961Z" fill="#022B87" stroke="white"/>
</svg>
