<svg width="47" height="48" viewBox="0 0 47 48" fill="none" xmlns="http://www.w3.org/2000/svg">
<path d="M23.4273 1.96875C13.807 1.96875 5.65547 8.1375 2.64453 16.6562H44.2102C41.1992 8.1375 33.0477 1.96875 23.4273 1.96875Z" fill="#3E4347"/>
<path d="M23.4273 46.0312C33.0477 46.0312 41.1992 39.9359 44.2102 31.3438H2.64453C5.65547 39.9359 13.807 46.0312 23.4273 46.0312Z" fill="#FFE62E"/>
<path d="M2.64297 16.6562C1.83516 18.9328 1.39453 21.4297 1.39453 24C1.39453 26.5703 1.83516 29.0672 2.64297 31.3438H44.2086C45.0164 29.0672 45.457 26.5703 45.457 24C45.457 21.4297 45.0164 18.9328 44.2086 16.6562H2.64297Z" fill="#ED4C5C"/>
</svg>
